{"accessors":[{"bufferView":0,"componentType":5123,"count":11892,"max":[2043],"min":[0],"type":"SCALAR"},{"bufferView":1,"componentType":5126,"count":2044,"max":[0.9872310161590576,0.9894472360610962,0.9872307181358337],"min":[-0.9872304201126099,-0.9737918376922607,-0.9872304201126099],"type":"VEC3"},{"bufferView":2,"componentType":5126,"count":2044,"max":[0.9999999403953552,0.9992201924324036,0.9999999403953552],"min":[-1.0,-1.0,-1.0],"type":"VEC3"},{"bufferView":3,"componentType":5126,"count":2044,"max":[1.3522906303405762,0.9851541519165039],"min":[0.00010225176811218262,0.014950454235076904],"type":"VEC2"},{"bufferView":4,"componentType":5123,"count":11892,"max":[2043],"min":[0],"type":"SCALAR"},{"bufferView":5,"componentType":5126,"count":2044,"max":[0.9872310161590576,0.9894472360610962,0.9872307181358337],"min":[-0.9872304201126099,-0.9737918376922607,-0.9872304201126099],"type":"VEC3"},{"bufferView":6,"componentType":5126,"count":2044,"max":[0.9999999403953552,0.9992201924324036,0.9999999403953552],"min":[-1.0,-1.0,-1.0],"type":"VEC3"},{"bufferView":7,"componentType":5126,"count":2044,"max":[1.3522906303405762,0.9851541519165039],"min":[0.00010225176811218262,0.014950454235076904],"type":"VEC2"}],"asset":{"generator":"Verge3D for Blender","version":"2.0"},"bufferViews":[{"buffer":0,"byteLength":23784,"byteOffset":0,"target":34963},{"buffer":0,"byteLength":24528,"byteOffset":23784,"target":34962},{"buffer":0,"byteLength":24528,"byteOffset":48312,"target":34962},{"buffer":0,"byteLength":16352,"byteOffset":72840,"target":34962},{"buffer":0,"byteLength":23784,"byteOffset":89192,"target":34963},{"buffer":0,"byteLength":24528,"byteOffset":112976,"target":34962},{"buffer":0,"byteLength":24528,"byteOffset":137504,"target":34962},{"buffer":0,"byteLength":16352,"byteOffset":162032,"target":34962}],"buffers":[{"byteLength":178384,"uri":"Celestial Map.bin"}],"cameras":[{"extensions":{"S8S_v3d_camera":{"controls":"ORBIT","enablePan":false,"moveSpeed":1.0,"orbitMaxDistance":1000.0,"orbitMaxPolarAngle":3.1415927410125732,"orbitMaxZoom":100.0,"orbitMinDistance":0.0,"orbitMinPolarAngle":0.0,"orbitMinZoom":0.009999999776482582,"orbitTarget":[0.0,0.0,-0.0],"rotateSpeed":1.0,"viewportFitInitialAspect":1.7777777777777777,"viewportFitType":"AUTO"}},"name":"Camera.001","perspective":{"aspectRatio":1.7777777777777777,"yfov":0.9727643957843545,"zfar":1000.0,"znear":0.10000000149011612},"type":"perspective"},{"extensions":{"S8S_v3d_camera":{"controls":"ORBIT","enablePan":false,"moveSpeed":1.0,"orbitMaxDistance":1000.0,"orbitMaxPolarAngle":3.1415927410125732,"orbitMaxZoom":100.0,"orbitMinDistance":0.0,"orbitMinPolarAngle":0.0,"orbitMinZoom":0.009999999776482582,"orbitTarget":[0.0,0.0,-0.0],"rotateSpeed":1.0,"viewportFitInitialAspect":1.7777777777777777,"viewportFitType":"AUTO"}},"name":"Camera.002","perspective":{"aspectRatio":1.7777777777777777,"yfov":0.9727643957843545,"zfar":1000.0,"znear":0.10000000149011612},"type":"perspective"}],"extensions":{"S8S_v3d_lights":{"lights":[{"angle":0.39269909262657166,"color":[1.0,1.0,1.0],"decay":2,"distance":223.6068002489797,"intensity":50000.0,"name":"Spot.001","penumbra":0.15000000596046448,"profile":"blender","shadow":{"bias":-0.0018,"cameraFar":223.6068002489797,"cameraFov":0.7853981852531433,"cameraNear":0.05000000074505806,"enabled":false,"expBias":2.5,"mapSize":512,"radius":8.049999237060547,"slopeScaledBias":2.5},"type":"spot"},{"angle":0.39269909262657166,"color":[1.0,1.0,1.0],"decay":2,"distance":223.6068002489797,"intensity":50000.0,"name":"Spot.005","penumbra":0.15000000596046448,"profile":"blender","shadow":{"bias":-0.0018,"cameraFar":223.6068002489797,"cameraFov":0.7853981852531433,"cameraNear":0.05000000074505806,"enabled":false,"expBias":2.5,"mapSize":512,"radius":8.049999237060547,"slopeScaledBias":2.5},"type":"spot"}]}},"extensionsUsed":["S8S_v3d_texture","S8S_v3d_materials","S8S_v3d_camera","S8S_v3d_lights","S8S_v3d_mesh","S8S_v3d_node","S8S_v3d_scene"],"images":[{"uri":"ldem_16_uint.png"},{"uri":"lroc_color_poles_4k.png"},{"uri":"hiptyc_2020_8k.png"},{"uri":"фигуры1.jpg"}],"materials":[{"extensions":{"S8S_v3d_materials":{"gtaoVisible":true,"materialIndex":0,"nodeGraph":{"edges":[{"fromNode":0,"fromOutput":0,"toInput":0,"toNode":1},{"fromNode":2,"fromOutput":0,"toInput":0,"toNode":5},{"fromNode":5,"fromOutput":0,"toInput":0,"toNode":0},{"fromNode":2,"fromOutput":0,"toInput":0,"toNode":4},{"fromNode":4,"fromOutput":0,"toInput":2,"toNode":3},{"fromNode":3,"fromOutput":0,"toInput":22,"toNode":0},{"fromNode":6,"fromOutput":3,"toInput":0,"toNode":2}],"nodes":[{"inputs":[[0.800000011920929,0.800000011920929,0.800000011920929,1.0],0.0,[1.0,0.20000000298023224,0.10000000149011612],[0.800000011920929,0.800000011920929,0.800000011920929,1.0],1.399999976158142,0.0,0.0,0.12909090518951416,0.0,0.8563636541366577,0.0,0.0,0.0,0.5,0.0,0.029999999329447746,1.4500000476837158,0.0,0.0,[0.0,0.0,0.0,1.0],1.0,1.0,[0.0,0.0,0.0],[0.0,0.0,0.0],[0.0,0.0,0.0]],"is_active_output":false,"name":"Principled BSDF","outputs":[[0,0,0,0]],"type":"BSDF_PRINCIPLED_BL"},{"inputs":[[0,0,0,0],[0,0,0,0],[0.0,0.0,0.0],0.0],"is_active_output":true,"name":"Material Output","outputs":[],"type":"OUTPUT_MATERIAL_BL"},{"inputs":[[0.0,0.0,0.0],[0.0,0.0,0.0],[6.2831854820251465,0.0,0.0],[-1.0,-1.0,-1.0]],"is_active_output":false,"name":"Mapping","outputs":[[0.0,0.0,0.0]],"type":"MAPPING_BL","vectorType":"POINT"},{"inputs":[0.15333333611488342,1.0,1.0,[0.0,0.0,0.0]],"invert":false,"is_active_output":false,"name":"Bump","outputs":[[0.0,0.0,0.0]],"type":"BUMP_BL"},{"inputs":[[0.0,0.0,0.0]],"is_active_output":false,"name":"Environment Texture.001","outputs":[[0.0,0.0,0.0,0.0]],"projection":"EQUIRECTANGULAR","texture":0,"type":"TEX_ENVIRONMENT_BL"},{"inputs":[[0.0,0.0,0.0]],"is_active_output":false,"name":"Environment Texture","outputs":[[0.0,0.0,0.0,0.0]],"projection":"EQUIRECTANGULAR","texture":1,"type":"TEX_ENVIRONMENT_BL"},{"inputs":[],"is_active_output":false,"name":"Texture Coordinate","object":-1,"outputs":[[0.0,0.0,0.0],[0.0,0.0,0.0],[0.0,0.0,0.0],[0.0,0.0,0.0],[0.0,0.0,0.0],[0.0,0.0,0.0],[0.0,0.0,0.0]],"type":"TEX_COORD_BL"}]},"useCastShadows":true}},"name":"Material.010"},{"extensions":{"S8S_v3d_materials":{"gtaoVisible":true,"materialIndex":0,"nodeGraph":{"edges":[{"fromNode":0,"fromOutput":0,"toInput":0,"toNode":1},{"fromNode":3,"fromOutput":0,"toInput":0,"toNode":2},{"fromNode":11,"fromOutput":0,"toInput":1,"toNode":12},{"fromNode":17,"fromOutput":0,"toInput":2,"toNode":12},{"fromNode":5,"fromOutput":0,"toInput":0,"toNode":4},{"fromNode":2,"fromOutput":0,"toInput":6,"toNode":8},{"fromNode":4,"fromOutput":0,"toInput":7,"toNode":8},{"fromNode":8,"fromOutput":2,"toInput":0,"toNode":17},{"fromNode":1,"fromOutput":0,"toInput":0,"toNode":3},{"fromNode":1,"fromOutput":0,"toInput":0,"toNode":5},{"fromNode":0,"fromOutput":0,"toInput":0,"toNode":13},{"fromNode":7,"fromOutput":0,"toInput":0,"toNode":15},{"fromNode":7,"fromOutput":0,"toInput":0,"toNode":6},{"fromNode":15,"fromOutput":0,"toInput":6,"toNode":9},{"fromNode":6,"fromOutput":0,"toInput":7,"toNode":9},{"fromNode":9,"fromOutput":2,"toInput":0,"toNode":11},{"fromNode":13,"fromOutput":0,"toInput":0,"toNode":10},{"fromNode":10,"fromOutput":0,"toInput":0,"toNode":7},{"fromNode":19,"fromOutput":0,"toInput":0,"toNode":18},{"fromNode":12,"fromOutput":0,"toInput":1,"toNode":19},{"fromNode":21,"fromOutput":0,"toInput":0,"toNode":16},{"fromNode":0,"fromOutput":0,"toInput":0,"toNode":21},{"fromNode":23,"fromOutput":0,"toInput":0,"toNode":19},{"fromNode":21,"fromOutput":0,"toInput":0,"toNode":20},{"fromNode":16,"fromOutput":0,"toInput":7,"toNode":22},{"fromNode":20,"fromOutput":0,"toInput":6,"toNode":22},{"fromNode":22,"fromOutput":2,"toInput":0,"toNode":23}],"nodes":[{"inputs":[],"is_active_output":false,"name":"Texture Coordinate","object":-1,"outputs":[[0.0,0.0,0.0],[0.0,0.0,0.0],[0.0,0.0,0.0],[0.0,0.0,0.0],[0.0,0.0,0.0],[0.0,0.0,0.0],[0.0,0.0,0.0]],"type":"TEX_COORD_BL"},{"inputs":[[0.0,0.0,0.0],[0.0,0.0,0.0],[0.0,0.0,0.0],[1.0,1.0,1.0]],"is_active_output":false,"name":"Mapping","outputs":[[0.0,0.0,0.0]],"type":"MAPPING_BL","vectorType":"POINT"},{"curve":{"input":[0.5272728800773621,1.0],"interpolation":"LINEAR","output":[0.0,0.0,0.0,1.0,0.024867668747901917,0.04914506897330284,0.10995908826589584,1.0]},"inputs":[0.5],"is_active_output":false,"name":"ColorRamp.001","outputs":[[0.0,0.0,0.0,0.0],0.0],"type":"VALTORGB_BL"},{"dispersionFactor":1.0,"falloffFactor":0.0,"inputs":[[0.0,0.0,0.0],0.0,3.0,15.0,0.7200000286102295,0.0],"is_active_output":false,"name":"Noise Texture.001","outputs":[0.0,[0.0,0.0,0.0,0.0]],"type":"TEX_NOISE_BL"},{"curve":{"input":[0.47272732853889465,1.0],"interpolation":"LINEAR","output":[0.0,0.0,0.0,1.0,0.10994382947683334,0.08394937217235565,0.10306084901094437,1.0]},"inputs":[0.5],"is_active_output":false,"name":"ColorRamp.002","outputs":[[0.0,0.0,0.0,0.0],0.0],"type":"VALTORGB_BL"},{"dispersionFactor":1.0,"falloffFactor":0.0,"inputs":[[0.0,0.0,0.0],0.0,4.000000953674316,15.0,0.7200000286102295,0.0],"is_active_output":false,"name":"Noise Texture.002","outputs":[0.0,[0.0,0.0,0.0,0.0]],"type":"TEX_NOISE_BL"},{"curve":{"input":[0.0,0.3181818425655365,1.0],"interpolation":"LINEAR","output":[0.0,0.0,0.0,1.0,1.0,0.9377816319465637,0.9493316411972046,1.0,1.0,1.0,1.0,1.0]},"inputs":[0.5],"is_active_output":false,"name":"ColorRamp.004","outputs":[[0.0,0.0,0.0,0.0],0.0],"type":"VALTORGB_BL"},{"curve":{"input":[0.0,0.05090959370136261],"interpolation":"LINEAR","output":[1.0,1.0,1.0,1.0,0.0,0.0,0.0,1.0]},"inputs":[0.5],"is_active_output":false,"name":"ColorRamp","outputs":[[0.0,0.0,0.0,0.0],0.0],"type":"VALTORGB_BL"},{"blendType":"MIX","clampFactor":true,"clampResult":false,"dataType":"RGBA","factorMode":"UNIFORM","inputs":[0.5,[0.5,0.5,0.5],0.0,0.0,[0.0,0.0,0.0],[0.0,0.0,0.0],[0.5,0.5,0.5,1.0],[0.5,0.5,0.5,1.0]],"is_active_output":false,"name":"Mix","outputs":[0.0,[0.0,0.0,0.0],[0.0,0.0,0.0,0.0]],"type":"MIX_BL"},{"blendType":"MIX","clampFactor":true,"clampResult":false,"dataType":"RGBA","factorMode":"UNIFORM","inputs":[0.6133333444595337,[0.5,0.5,0.5],0.0,0.0,[0.0,0.0,0.0],[0.0,0.0,0.0],[0.5,0.5,0.5,1.0],[0.5,0.5,0.5,1.0]],"is_active_output":false,"name":"Mix.001","outputs":[0.0,[0.0,0.0,0.0],[0.0,0.0,0.0,0.0]],"type":"MIX_BL"},{"distance":"EUCLIDEAN","feature":"F1","inputs":[[0.0,0.0,0.0],0.0,241.99998474121094,1.0,0.5,1.0],"is_active_output":false,"name":"Voronoi Texture","outputs":[0.0,[0.0,0.0,0.0,0.0],[0.0,0.0,0.0],0.0,0.0],"type":"TEX_VORONOI_BL"},{"inputs":[[0.014996668323874474,0.014996668323874474,0.014996668323874474,1.0],1.0],"is_active_output":false,"name":"Background.001","outputs":[[0,0,0,0]],"type":"BACKGROUND_BL"},{"inputs":[0.2800000011920929,[0,0,0,0],[0,0,0,0]],"is_active_output":false,"name":"Mix Shader","outputs":[[0,0,0,0]],"type":"MIX_SHADER_BL"},{"inputs":[[0.0,0.0,0.0],[0.0,0.0,0.0],[0.0,0.0,0.0],[1.0,1.0,1.0]],"is_active_output":false,"name":"Mapping.001","outputs":[[0.0,0.0,0.0]],"type":"MAPPING_BL","vectorType":"POINT"},{"dispersionFactor":1.0,"falloffFactor":0.0,"inputs":[[0.0,0.0,0.0],0.0,600.0,8.399999618530273,0.5,0.0],"is_active_output":false,"name":"Noise Texture","outputs":[0.0,[0.0,0.0,0.0,0.0]],"type":"TEX_NOISE_BL"},{"curve":{"input":[0.0,0.11090917885303497,1.0],"interpolation":"LINEAR","output":[0.0,0.0,0.0,1.0,1.0,0.30380451679229736,0.038157302886247635,1.0,1.0,1.0,1.0,1.0]},"inputs":[0.5],"is_active_output":false,"name":"ColorRamp.003","outputs":[[0.0,0.0,0.0,0.0],0.0],"type":"VALTORGB_BL"},{"inputs":[[0.0,0.0,0.0]],"is_active_output":false,"name":"Environment Texture","outputs":[[0.0,0.0,0.0,0.0]],"projection":"EQUIRECTANGULAR","texture":2,"type":"TEX_ENVIRONMENT_BL"},{"inputs":[[0.014996668323874474,0.014996668323874474,0.014996668323874474,1.0],1.0],"is_active_output":false,"name":"Background","outputs":[[0,0,0,0]],"type":"BACKGROUND_BL"},{"inputs":[[0,0,0,0],[0,0,0,0]],"is_active_output":true,"name":"World Output","outputs":[],"type":"OUTPUT_WORLD_BL"},{"inputs":[[0,0,0,0],[0,0,0,0]],"is_active_output":false,"name":"Add Shader","outputs":[[0,0,0,0]],"type":"ADD_SHADER_BL"},{"inputs":[[0.0,0.0,0.0]],"is_active_output":false,"name":"Environment Texture.001","outputs":[[0.0,0.0,0.0,0.0]],"projection":"EQUIRECTANGULAR","texture":3,"type":"TEX_ENVIRONMENT_BL"},{"inputs":[[0.0,0.0,0.0],[0.0,0.0,0.0],[0.0,3.1450836658477783,0.0],[-1.0,-1.0,-1.0]],"is_active_output":false,"name":"Mapping.002","outputs":[[0.0,0.0,0.0]],"type":"MAPPING_BL","vectorType":"TEXTURE"},{"blendType":"MIX","clampFactor":true,"clampResult":false,"dataType":"RGBA","factorMode":"UNIFORM","inputs":[0.5,[0.5,0.5,0.5],0.0,0.0,[0.0,0.0,0.0],[0.0,0.0,0.0],[0.5,0.5,0.5,1.0],[0.5,0.5,0.5,1.0]],"is_active_output":false,"name":"Mix.002","outputs":[0.0,[0.0,0.0,0.0],[0.0,0.0,0.0,0.0]],"type":"MIX_BL"},{"inputs":[[0.014996668323874474,0.014996668323874474,0.014996668323874474,1.0],1.0],"is_active_output":false,"name":"Background.002","outputs":[[0,0,0,0]],"type":"BACKGROUND_BL"}]},"useCastShadows":true}},"name":"Verge3D_Environment_World.002"}],"meshes":[{"extensions":{"S8S_v3d_mesh":{"colorLayers":{},"uvLayers":{"UVMap":"TEXCOORD_0"}}},"name":"Sphere.001","primitives":[{"attributes":{"NORMAL":2,"POSITION":1,"TEXCOORD_0":3},"indices":0,"material":0,"mode":4}]},{"extensions":{"S8S_v3d_mesh":{"colorLayers":{},"uvLayers":{"UVMap":"TEXCOORD_0"}}},"name":"Sphere.003","primitives":[{"attributes":{"NORMAL":6,"POSITION":5,"TEXCOORD_0":7},"indices":4,"material":0,"mode":4}]}],"nodes":[{"extensions":{"S8S_v3d_lights":{"light":1},"S8S_v3d_node":{"frustumCulling":true,"groupNames":["Collection","Moon"],"hidden":false,"hidpiCompositing":true,"objectColor":[1.0,1.0,1.0,1.0],"objectIndex":0,"renderOrder":0}},"name":"SpotMoon","rotation":[-0.6952664256095886,0.33357253670692444,-0.4407871663570404,0.4593917727470398],"scale":[1.0000001192092896,0.9999999403953552,1.0],"translation":[46.3115234375,15.387371063232422,-10.14715576171875]},{"extensions":{"S8S_v3d_node":{"frustumCulling":true,"groupNames":["Collection.001","Moon.001"],"hidden":false,"hidpiCompositing":false,"objectColor":[1.0,1.0,1.0,1.0],"objectIndex":0,"renderOrder":0,"useShadows":true}},"mesh":0,"name":"Moon.001","rotation":[-0.0,-0.993175208568573,0.0,0.11663290858268738],"scale":[9.999999046325684,10.0,9.999999046325684],"translation":[0.0,0.0,-0.92657470703125]},{"extensions":{"S8S_v3d_node":{"frustumCulling":true,"groupNames":["Collection","Moon"],"hidden":false,"hidpiCompositing":false,"objectColor":[1.0,1.0,1.0,1.0],"objectIndex":0,"renderOrder":0,"useShadows":true}},"mesh":1,"name":"Moon","rotation":[-0.0,-0.993175208568573,0.0,0.11663290858268738],"scale":[9.999999046325684,10.0,9.999999046325684],"translation":[0.0,0.0,-0.92657470703125]},{"extensions":{"S8S_v3d_lights":{"light":0},"S8S_v3d_node":{"frustumCulling":true,"groupNames":["Collection.001","Moon.001"],"hidden":false,"hidpiCompositing":true,"objectColor":[1.0,1.0,1.0,1.0],"objectIndex":0,"renderOrder":0}},"name":"SpotMoon.001","rotation":[-0.6952664256095886,0.33357253670692444,-0.4407871663570404,0.4593917727470398],"scale":[1.0000001192092896,0.9999999403953552,1.0],"translation":[46.3115234375,15.387371063232422,-10.14715576171875]},{"camera":0,"extensions":{"S8S_v3d_node":{"frustumCulling":true,"groupNames":["Collection"],"hidden":false,"hidpiCompositing":false,"objectColor":[1.0,1.0,1.0,1.0],"objectIndex":0,"renderOrder":0}},"name":"Camera.001","rotation":[-0.1681406944990158,0.533017635345459,0.10902486741542816,0.8220307230949402],"scale":[1.0,0.9999999403953552,0.9999999403953552],"translation":[58.11095428466797,25.01259994506836,19.295578002929688]},{"camera":1,"extensions":{"S8S_v3d_node":{"frustumCulling":true,"groupNames":["Collection.001"],"hidden":false,"hidpiCompositing":false,"objectColor":[1.0,1.0,1.0,1.0],"objectIndex":0,"renderOrder":0}},"name":"Camera.002","rotation":[-0.1681406944990158,0.533017635345459,0.10902486741542816,0.8220307230949402],"scale":[1.0,0.9999999403953552,0.9999999403953552],"translation":[58.11095428466797,25.01259994506836,19.295578002929688]}],"samplers":[{}],"scene":0,"scenes":[{"extensions":{"S8S_v3d_scene":{"aaMethod":"AUTO","iblEnvironmentMode":"PROBE_CUBEMAP","physicallyCorrectLights":true,"pmremMaxTileSize":512,"shadowMap":{"esmDistanceScale":1.0,"renderReverseSided":false,"renderSingleSided":true,"type":"PCFPOISSON"},"toneMapping":{"type":"filmicBlender"},"useHDR":true,"worldMaterial":1}},"extras":{"animFrameRate":24,"coordSystem":"Z_UP_RIGHT"},"name":"Scene","nodes":[4,2,0]},{"extensions":{"S8S_v3d_scene":{"aaMethod":"AUTO","iblEnvironmentMode":"PROBE_CUBEMAP","physicallyCorrectLights":true,"pmremMaxTileSize":512,"shadowMap":{"esmDistanceScale":1.0,"renderReverseSided":false,"renderSingleSided":true,"type":"PCFPOISSON"},"toneMapping":{"type":"filmicBlender"},"useHDR":true,"worldMaterial":1}},"extras":{"animFrameRate":24,"coordSystem":"Z_UP_RIGHT"},"name":"Scene.001","nodes":[5,1,3]}],"textures":[{"extensions":{"S8S_v3d_texture":{"colorSpace":"non-color"}},"name":"ldem_16_uint.png","sampler":0,"source":0},{"extensions":{"S8S_v3d_texture":{"colorSpace":"srgb"}},"name":"lroc_color_poles_4k.png","sampler":0,"source":1},{"extensions":{"S8S_v3d_texture":{"colorSpace":"srgb"}},"name":"hiptyc_2020_8k.exr","sampler":0,"source":2},{"extensions":{"S8S_v3d_texture":{"colorSpace":"srgb"}},"name":"фигуры1.jpg","sampler":0,"source":3}]}
